<svg width="17" height="12" viewBox="0 0 17 12" fill="none" xmlns="http://www.w3.org/2000/svg">
<g clip-path="url(#clip0_10_8006)">
<path d="M7.23462 10.7153C7.11938 10.8005 7.12046 10.9666 7.22164 11.068L8.07781 11.9241C8.10192 11.9483 8.13056 11.9675 8.16209 11.9806C8.19363 11.9937 8.22744 12.0004 8.26159 12.0004C8.29573 12.0004 8.32955 11.9937 8.36108 11.9806C8.39262 11.9675 8.42126 11.9483 8.44536 11.9241L9.30153 11.068C9.40293 10.9666 9.4038 10.8005 9.28856 10.7153C8.99113 10.4959 8.63122 10.3774 8.26159 10.3774C7.89195 10.3774 7.53204 10.4959 7.23462 10.7153Z" fill="#10100F"/>
<path d="M5.2051 9.04988C4.86739 8.71217 4.86393 8.15761 5.25288 7.88022C6.13182 7.25466 7.18384 6.91852 8.26266 6.91852C9.34149 6.91852 10.3935 7.25466 11.2724 7.88022C11.6616 8.15761 11.6579 8.71217 11.3202 9.04988C10.9825 9.3876 10.4383 9.37592 10.0278 9.13182C9.49337 8.81523 8.88368 8.64819 8.26255 8.64819C7.64143 8.64819 7.03174 8.81523 6.49735 9.13182C6.08678 9.37592 5.54281 9.3876 5.2051 9.04988Z" fill="#10100F"/>
<path d="M2.7594 6.60375C2.42169 6.26604 2.4191 5.71472 2.78881 5.41203C4.33366 4.14916 6.26765 3.45926 8.263 3.45926C10.2584 3.45926 12.1923 4.14916 13.7372 5.41203C14.1069 5.71472 14.1047 6.26604 13.7666 6.60375C13.4284 6.94146 12.8843 6.93649 12.5072 6.64332C11.2933 5.70062 9.8 5.18891 8.263 5.18891C6.726 5.18891 5.23275 5.70062 4.0188 6.64332C3.64173 6.93649 3.0982 6.94146 2.7594 6.60375Z" fill="#10100F"/>
<path d="M0.251607 4.157C-0.0861047 3.81929 -0.0880505 3.26904 0.273227 2.9562C2.48681 1.03833 5.32057 -0.0121233 8.2494 -0.000515164C11.1782 0.011093 14.0036 1.08398 16.2019 3.01933C16.5601 3.33499 16.5541 3.88523 16.2136 4.22013C15.873 4.55503 15.3271 4.54789 14.9658 4.23634C13.094 2.62758 10.7101 1.73854 8.24199 1.72875C5.77384 1.71897 3.38299 2.58907 1.49846 4.18294C1.1348 4.49168 0.590399 4.49471 0.251607 4.157Z" fill="#10100F"/>
</g>
<defs>
<clipPath id="clip0_10_8006">
<rect width="16.4692" height="12" fill="white"/>
</clipPath>
</defs>
</svg>
